HIERARCHY
ROOT Hips
{
  OFFSET 2.26061 22.2878 23.7974
  CHANNELS 6 Xposition Yposition Zposition Zrotation Xrotation Yrotation
  JOINT LeftUpLeg
  {
    OFFSET 8.64259 1.95398 -2.38835
    CHANNELS 3 Zrotation Xrotation Yrotation
    JOINT LeftLeg
    {
      OFFSET 43.7702 0 0
      CHANNELS 3 Zrotation Xrotation Yrotation
      JOINT LeftFoot
      {
        OFFSET 40.6238 0 0
        CHANNELS 3 Zrotation Xrotation Yrotation
        JOINT LeftToeBase
        {
          OFFSET 12.7242 0 0
          CHANNELS 3 Zrotation Xrotation Yrotation
          End Site
          {
            OFFSET 0 0 0
          }
        }
      }
    }
  }
  JOINT RightUpLeg
  {
    OFFSET -8.2249 1.95398 -2.59336
    CHANNELS 3 Zrotation Xrotation Yrotation
    JOINT RightLeg
    {
      OFFSET 43.5653 0 0
      CHANNELS 3 Zrotation Xrotation Yrotation
      JOINT RightFoot
      {
        OFFSET 40.6238 0 0
        CHANNELS 3 Zrotation Xrotation Yrotation
        JOINT RightToeBase
        {
          OFFSET 12.7242 0 0
          CHANNELS 3 Zrotation Xrotation Yrotation
          End Site
          {
            OFFSET 0 0 0
          }
        }
      }
    }
  }
  JOINT Spine
  {
    OFFSET 0.165834 0.87714 6.61349
    CHANNELS 3 Zrotation Xrotation Yrotation
    JOINT Spine1
    {
      OFFSET 7.38963 1.71661e-005 0
      CHANNELS 3 Zrotation Xrotation Yrotation
      JOINT Spine2
      {
        OFFSET 11.9445 1.14441e-005 0
        CHANNELS 3 Zrotation Xrotation Yrotation
        JOINT Spine3
        {
          OFFSET 14.7254 4.19617e-005 0
          CHANNELS 3 Zrotation Xrotation Yrotation
          JOINT Spine4
          {
            OFFSET 10.9679 0 0
            CHANNELS 3 Zrotation Xrotation Yrotation
            JOINT RightShoulder
            {
              OFFSET 2.46616 -1.6653 3.69651
              CHANNELS 3 Zrotation Xrotation Yrotation
              JOINT RightArm
              {
                OFFSET 13.0012 0 0
                CHANNELS 3 Zrotation Xrotation Yrotation
                JOINT RightForeArm
                {
                  OFFSET 28.7848 1.52588e-005 0
                  CHANNELS 3 Zrotation Xrotation Yrotation
                  JOINT RightHand
                  {
                    OFFSET 26.5688 1.52588e-005 0
                    CHANNELS 3 Zrotation Xrotation Yrotation
                    End Site
                    {
                      OFFSET 0 0 0
                    }
                  }
                }
              }
            }
            JOINT LeftShoulder
            {
              OFFSET 2.38034 -1.29275 -3.7523
              CHANNELS 3 Zrotation Xrotation Yrotation
              JOINT LeftArm
              {
                OFFSET 16.3182 6.10351e-005 0
                CHANNELS 3 Zrotation Xrotation Yrotation
                JOINT LeftForeArm
                {
                  OFFSET 27.0901 0 0
                  CHANNELS 3 Zrotation Xrotation Yrotation
                  JOINT LeftHand
                  {
                    OFFSET 24.5451 1.52588e-005 0
                    CHANNELS 3 Zrotation Xrotation Yrotation
                    End Site
                    {
                      OFFSET 0 0 0
                    }
                  }
                }
              }
            }
            JOINT Neck
            {
              OFFSET 5.0226 -0.0266342 0
              CHANNELS 3 Zrotation Xrotation Yrotation
              JOINT Head
              {
                OFFSET 6.69363 2.86102e-005 0
                CHANNELS 3 Zrotation Xrotation Yrotation
                End Site
                {
                  OFFSET 0 0 0
                }
              }
            }
          }
        }
      }
    }
  }
}
MOTION
Frames:	6
Frame Time:	0.0416667
321.7 88.8933 243.67 106.797 -38.4655 98.832 -175.06 20.2196 90.5324 -38.0589 47.4025 2.74108 39.422 -16.4208 1.81755 37.5853 1.97674 153.424 172.979 23.4469 83.1593 -88.4491 -4.93918 -2.43288 75.9772 -10.9679 -5.42694 41.9321 0.108262 -10.8467 -6.62582 8.52253 -87.6099 10.1514 -12.1159 5.76257 -1.47765 -11.851 6.29511 -24.4574 -13.2789 1.79878 -4.44476 -13.2789 1.79879 69.8426 -6.48784 -169.34 59.3337 2.25481 15.0634 -2.20276 3.07974 -68.5834 -31.9402 -1.11088 -1.38992 -73.1788 -42.6943 104.763 -21.3405 43.5751 1.95022 -1.01447 42.8296 -32.0129 -38.5891 16.5885 -52.6503 -7.1057 23.3904 11.2945 7.93784 19.3938 -33.5287 
321.33 91.1002 241.622 106.265 -49.8876 98.4369 -175.342 16.4887 89.6287 -27.0086 20.6211 3.05234 39.7894 -16.5633 -10.5938 32.3408 14.8088 145.81 -179.458 28.444 81.8529 -88.3315 3.7386 -3.95782 55.4044 -4.89154 -3.23364 39.5867 0.218405 -9.91525 -4.8377 8.14237 -87.9095 10.7824 -8.67022 4.96073 -0.870525 -8.44378 5.33881 -23.619 -9.75678 2.10677 -3.6064 -9.75678 2.10676 66.1552 -14.344 -165.258 47.9045 -0.126829 16.5509 -5.68462 -1.62549 -77.9636 -30.7319 -0.46308 -3.39156 -85.1576 -47.3562 85.6232 -32.6678 4.45938 22.9183 22.2192 26.2007 -43.4905 -55.9963 26.4169 -34.9051 3.54482 19.0027 5.69751 -5.0042 18.2684 -31.0569 
320.146 90.467 239.152 105.898 -56.6771 102.3 -175.379 16.9051 96.1758 -19.0457 -16.0129 4.65218 16.8506 -12.338 -47.3898 30.3566 23.7201 139.557 -171.693 21.746 83.0931 -90.4746 -4.45166 -6.5524 49.9563 -0.878923 -0.626614 48.2511 -0.0208314 -9.67469 -3.14728 8.22063 -88.5256 10.5191 -5.59212 3.42342 -1.14479 -5.4361 3.66653 -23.7679 -6.36164 1.57941 -3.7552 -6.36164 1.57941 68.2373 -18.7444 -156.687 43.4829 -5.70035 14.3808 -12.8948 -0.0228652 -89.6802 -28.2812 -0.0460673 -4.5185 -88.4181 -46.194 80.3608 -40.1143 -1.4749 32.8047 -10.5164 -10.9603 -56.9666 30.9739 -0.630193 8.63933 14.282 12.5155 -3.82105 -15.6737 15.1859 -19.824 
316.367 91.6608 236.234 104.519 -56.5673 101.153 -175.812 14.4493 97.5435 -5.48219 -28.2801 6.3799 11.3964 -3.86425 -71.1461 41.0212 23.3875 71.9253 -173.115 12.8873 83.5174 -83.7234 -6.92848 -9.62411 58.2273 -1.23989 -0.739254 47.8955 0.936736 0.0761019 -2.1405 8.49327 -88.93 9.92267 -3.7804 2.43101 -1.74547 -3.66976 2.59511 -24.3183 -4.33596 1.18103 -4.30568 -4.33595 1.18103 73.7767 -20.1061 -145.325 43.2791 -11.9792 10.7076 -16.1448 -0.758126 -96.3716 -27.9743 -0.415428 -2.95191 -82.52 -43.2849 89.3817 -45.717 5.59932 33.4041 -11.9754 -7.15914 -63.0145 44.8216 1.05449 -1.90425 23.2086 6.08231 -3.19418 -19.9795 8.50941 -11.1465 
310.474 95.3532 231.995 98.691 -53.7764 97.5402 -176.622 21.731 95.4849 -8.16866 20.1822 4.77918 -16.2176 -39.9843 -20.6483 85.7903 20.3214 -44.7803 -177.009 10.2059 85.8524 -70.3556 -11.4961 -9.9355 57.6624 -0.705098 -0.376311 49.6217 1.2933 2.10293 -1.56388 8.53693 -89.6882 9.81299 -2.97596 0.856373 -1.85492 -2.93538 0.98661 -24.4175 -3.09564 -0.078463 -4.40483 -3.09563 -0.0784629 79.7313 -20.9041 -132.976 43.3305 -18.3195 7.7721 -17.2442 -1.25847 -96.0485 -30.3659 -0.499038 -2.66836 -77.9538 -45.1539 96.8759 -45.7122 7.04934 32.62 -10.4043 -5.39923 -67.4614 43.8245 1.15448 -1.45133 31.3795 3.02611 2.4305 -20.9862 2.8482 -5.84767 
304.028 94.7808 227.37 94.2476 -51.159 94.0343 -176.843 20.5683 102.568 12.962 -76.0673 22.9363 -72.4278 -42.028 -43.5936 -63.0009 -37.5391 -36.0703 -178.413 13.8056 88.0477 -66.4611 -13.3339 -8.94777 62.4172 -1.52417 -0.847188 52.4372 0.273428 -6.34513 -0.885525 8.52833 -90.0284 9.81863 -1.77791 0.0862771 -1.85112 -1.7724 0.164458 -24.3955 -1.72163 -0.452208 -4.38281 -1.72163 -0.452209 82.8143 -27.194 -122.36 40.9031 -19.2379 7.70042 -17.2716 -3.40115 -92.0506 -31.2651 -0.558301 -2.42971 -84.0554 -51.651 87.8787 -39.6543 3.17469 29.5396 -11.5746 -5.79815 -69.1319 46.046 1.88065 0.0507948 29.9027 0.133575 7.66021 -12.5807 -2.24904 -6.21617 
